<?xml version="1.0" encoding="utf-8"?>
<svg viewBox="0 0 476 927" fill="none" xmlns="http://www.w3.org/2000/svg">
  <path id="scroll-line-2" d="M 501.278 15.157 C 32.741 7.949 -36.208 59.556 69.85 155.133 C 175.908 250.71 311.396 294.723 384.834 284.472 C 465.894 273.157 525.146 152.863 341.137 172.165 C 315.511 170.246 -143.708 299.855 -74.34 388.789 C -4.972 477.723 311.436 390.085 339.699 385.836 C 421.255 373.575 454.968 380.627 466.636 414.134 C 478.304 447.641 425.255 533.727 378.721 558.551 C 333.774 582.528 266.469 590.445 219.852 581.44 C 173.235 572.435 147.798 492.33 65.5 519.719 C 53.604 523.678 41.521 534.631 30.771 549.161 C 20.021 563.691 12.75 582 7 605 C 2.681 622.275 3.783 639.025 8.164 654.144 C 12.545 669.262 27.643 680.271 36.438 691.021 C 70.234 722.236 122.619 691.195 131.384 685.638 C 140.149 680.081 179.059 633.709 282.567 649.089 C 608.133 698.916 402.798 864.705 255.814 815.871 C 145.127 782.421 1.437 798.031 28.193 867.424 C 47.776 911.038 234.191 860.297 244.656 941.294" stroke-width="8" stroke-linecap="round" style="stroke: url(&quot;#paint0_linear_2_3&quot;); stroke-miterlimit: 9.68; stroke-dashoffset: -55px;">
    <animate attributeName="pathLength" values="4199.802734375; 4199.802734375" begin="40.45s" dur="2s" fill="freeze"/>
  </path>
  <defs>
    <linearGradient id="paint0_linear_2_3" x1="199.027" y1="-6.29894e-06" x2="285.693" y2="1203" gradientUnits="userSpaceOnUse" gradientTransform="matrix(-0.731578, -0.678131, 0.194553, -0.108934, 344.630818, 134.966279)">
      <stop stop-color="#F87D37" style="stop-color: rgb(0, 0, 0);"/>
    </linearGradient>
  </defs>
</svg>